<svg viewBox="0 0 900 450" xmlns="http://www.w3.org/2000/svg"
     style="max-width: 100%; height: auto; background: #fbf3e3; border: 4px solid #6b3a1f; border-radius: 14px;">
  <defs>
    <clipPath id="waveClip">
      <rect x="0" y="-160" width="840" height="320" />
    </clipPath>
  </defs>

  <!-- legend -->
  <g font-family="Georgia, serif" font-size="16">
    <line x1="30" y1="20" x2="66" y2="20" stroke="#2c6fbb" stroke-width="3" />
    <text x="74" y="25" fill="#2c6fbb">Incident wave</text>

    <line x1="260" y1="20" x2="296" y2="20" stroke="#c0392b" stroke-width="3" stroke-dasharray="7 5" />
    <text x="304" y="25" fill="#c0392b">Reflected wave (inverted)</text>

    <line x1="610" y1="20" x2="646" y2="20" stroke="#4b1e62" stroke-width="5" />
    <text x="654" y="25" fill="#4b1e62" font-weight="bold">Standing wave (sum)</text>
  </g>

  <g transform="translate(30,210)" clip-path="url(#waveClip)">
    <!-- zero / equilibrium line -->
    <line x1="0" y1="0" x2="840" y2="0" stroke="#e8c170" stroke-width="3" stroke-dasharray="10 8" />

    <!-- incident wave: travels right -->
    <g>
      <animateTransform attributeName="transform" type="translate"
        values="0 0;280 0" dur="4s" repeatCount="indefinite" calcMode="linear" />
      <path d="M -400.0,19.52 L -396.0,23.08 L -392.0,26.45 L -388.0,29.61 L -384.0,32.53 L -380.0,35.18 L -376.0,37.56 L -372.0,39.63 L -368.0,41.38 L -364.0,42.80 L -360.0,43.87 L -356.0,44.59 L -352.0,44.95 L -348.0,44.95 L -344.0,44.59 L -340.0,43.87 L -336.0,42.80 L -332.0,41.38 L -328.0,39.63 L -324.0,37.56 L -320.0,35.18 L -316.0,32.53 L -312.0,29.61 L -308.0,26.45 L -304.0,23.08 L -300.0,19.52 L -296.0,15.81 L -292.0,11.97 L -288.0,8.04 L -284.0,4.03 L -280.0,-0.00 L -276.0,-4.03 L -272.0,-8.04 L -268.0,-11.97 L -264.0,-15.81 L -260.0,-19.52 L -256.0,-23.08 L -252.0,-26.45 L -248.0,-29.61 L -244.0,-32.53 L -240.0,-35.18 L -236.0,-37.56 L -232.0,-39.63 L -228.0,-41.38 L -224.0,-42.80 L -220.0,-43.87 L -216.0,-44.59 L -212.0,-44.95 L -208.0,-44.95 L -204.0,-44.59 L -200.0,-43.87 L -196.0,-42.80 L -192.0,-41.38 L -188.0,-39.63 L -184.0,-37.56 L -180.0,-35.18 L -176.0,-32.53 L -172.0,-29.61 L -168.0,-26.45 L -164.0,-23.08 L -160.0,-19.52 L -156.0,-15.81 L -152.0,-11.97 L -148.0,-8.04 L -144.0,-4.03 L -140.0,0.00 L -136.0,4.03 L -132.0,8.04 L -128.0,11.97 L -124.0,15.81 L -120.0,19.52 L -116.0,23.08 L -112.0,26.45 L -108.0,29.61 L -104.0,32.53 L -100.0,35.18 L -96.0,37.56 L -92.0,39.63 L -88.0,41.38 L -84.0,42.80 L -80.0,43.87 L -76.0,44.59 L -72.0,44.95 L -68.0,44.95 L -64.0,44.59 L -60.0,43.87 L -56.0,42.80 L -52.0,41.38 L -48.0,39.63 L -44.0,37.56 L -40.0,35.18 L -36.0,32.53 L -32.0,29.61 L -28.0,26.45 L -24.0,23.08 L -20.0,19.52 L -16.0,15.81 L -12.0,11.97 L -8.0,8.04 L -4.0,4.03 L 0.0,-0.00 L 4.0,-4.03 L 8.0,-8.04 L 12.0,-11.97 L 16.0,-15.81 L 20.0,-19.52 L 24.0,-23.08 L 28.0,-26.45 L 32.0,-29.61 L 36.0,-32.53 L 40.0,-35.18 L 44.0,-37.56 L 48.0,-39.63 L 52.0,-41.38 L 56.0,-42.80 L 60.0,-43.87 L 64.0,-44.59 L 68.0,-44.95 L 72.0,-44.95 L 76.0,-44.59 L 80.0,-43.87 L 84.0,-42.80 L 88.0,-41.38 L 92.0,-39.63 L 96.0,-37.56 L 100.0,-35.18 L 104.0,-32.53 L 108.0,-29.61 L 112.0,-26.45 L 116.0,-23.08 L 120.0,-19.52 L 124.0,-15.81 L 128.0,-11.97 L 132.0,-8.04 L 136.0,-4.03 L 140.0,-0.00 L 144.0,4.03 L 148.0,8.04 L 152.0,11.97 L 156.0,15.81 L 160.0,19.52 L 164.0,23.08 L 168.0,26.45 L 172.0,29.61 L 176.0,32.53 L 180.0,35.18 L 184.0,37.56 L 188.0,39.63 L 192.0,41.38 L 196.0,42.80 L 200.0,43.87 L 204.0,44.59 L 208.0,44.95 L 212.0,44.95 L 216.0,44.59 L 220.0,43.87 L 224.0,42.80 L 228.0,41.38 L 232.0,39.63 L 236.0,37.56 L 240.0,35.18 L 244.0,32.53 L 248.0,29.61 L 252.0,26.45 L 256.0,23.08 L 260.0,19.52 L 264.0,15.81 L 268.0,11.97 L 272.0,8.04 L 276.0,4.03 L 280.0,0.00 L 284.0,-4.03 L 288.0,-8.04 L 292.0,-11.97 L 296.0,-15.81 L 300.0,-19.52 L 304.0,-23.08 L 308.0,-26.45 L 312.0,-29.61 L 316.0,-32.53 L 320.0,-35.18 L 324.0,-37.56 L 328.0,-39.63 L 332.0,-41.38 L 336.0,-42.80 L 340.0,-43.87 L 344.0,-44.59 L 348.0,-44.95 L 352.0,-44.95 L 356.0,-44.59 L 360.0,-43.87 L 364.0,-42.80 L 368.0,-41.38 L 372.0,-39.63 L 376.0,-37.56 L 380.0,-35.18 L 384.0,-32.53 L 388.0,-29.61 L 392.0,-26.45 L 396.0,-23.08 L 400.0,-19.52 L 404.0,-15.81 L 408.0,-11.97 L 412.0,-8.04 L 416.0,-4.03 L 420.0,-0.00 L 424.0,4.03 L 428.0,8.04 L 432.0,11.97 L 436.0,15.81 L 440.0,19.52 L 444.0,23.08 L 448.0,26.45 L 452.0,29.61 L 456.0,32.53 L 460.0,35.18 L 464.0,37.56 L 468.0,39.63 L 472.0,41.38 L 476.0,42.80 L 480.0,43.87 L 484.0,44.59 L 488.0,44.95 L 492.0,44.95 L 496.0,44.59 L 500.0,43.87 L 504.0,42.80 L 508.0,41.38 L 512.0,39.63 L 516.0,37.56 L 520.0,35.18 L 524.0,32.53 L 528.0,29.61 L 532.0,26.45 L 536.0,23.08 L 540.0,19.52 L 544.0,15.81 L 548.0,11.97 L 552.0,8.04 L 556.0,4.03 L 560.0,0.00 L 564.0,-4.03 L 568.0,-8.04 L 572.0,-11.97 L 576.0,-15.81 L 580.0,-19.52 L 584.0,-23.08 L 588.0,-26.45 L 592.0,-29.61 L 596.0,-32.53 L 600.0,-35.18 L 604.0,-37.56 L 608.0,-39.63 L 612.0,-41.38 L 616.0,-42.80 L 620.0,-43.87 L 624.0,-44.59 L 628.0,-44.95 L 632.0,-44.95 L 636.0,-44.59 L 640.0,-43.87 L 644.0,-42.80 L 648.0,-41.38 L 652.0,-39.63 L 656.0,-37.56 L 660.0,-35.18 L 664.0,-32.53 L 668.0,-29.61 L 672.0,-26.45 L 676.0,-23.08 L 680.0,-19.52 L 684.0,-15.81 L 688.0,-11.97 L 692.0,-8.04 L 696.0,-4.03 L 700.0,-0.00 L 704.0,4.03 L 708.0,8.04 L 712.0,11.97 L 716.0,15.81 L 720.0,19.52 L 724.0,23.08 L 728.0,26.45 L 732.0,29.61 L 736.0,32.53 L 740.0,35.18 L 744.0,37.56 L 748.0,39.63 L 752.0,41.38 L 756.0,42.80 L 760.0,43.87 L 764.0,44.59 L 768.0,44.95 L 772.0,44.95 L 776.0,44.59 L 780.0,43.87 L 784.0,42.80 L 788.0,41.38 L 792.0,39.63 L 796.0,37.56 L 800.0,35.18 L 804.0,32.53 L 808.0,29.61 L 812.0,26.45 L 816.0,23.08 L 820.0,19.52 L 824.0,15.81 L 828.0,11.97 L 832.0,8.04 L 836.0,4.03 L 840.0,0.00 L 844.0,-4.03 L 848.0,-8.04 L 852.0,-11.97 L 856.0,-15.81 L 860.0,-19.52 L 864.0,-23.08 L 868.0,-26.45 L 872.0,-29.61 L 876.0,-32.53 L 880.0,-35.18 L 884.0,-37.56 L 888.0,-39.63 L 892.0,-41.38 L 896.0,-42.80 L 900.0,-43.87 L 904.0,-44.59 L 908.0,-44.95 L 912.0,-44.95 L 916.0,-44.59 L 920.0,-43.87 L 924.0,-42.80 L 928.0,-41.38 L 932.0,-39.63 L 936.0,-37.56 L 940.0,-35.18 L 944.0,-32.53 L 948.0,-29.61 L 952.0,-26.45 L 956.0,-23.08 L 960.0,-19.52 L 964.0,-15.81 L 968.0,-11.97 L 972.0,-8.04 L 976.0,-4.03 L 980.0,-0.00 L 984.0,4.03 L 988.0,8.04 L 992.0,11.97 L 996.0,15.81 L 1000.0,19.52 L 1004.0,23.08 L 1008.0,26.45 L 1012.0,29.61 L 1016.0,32.53 L 1020.0,35.18 L 1024.0,37.56 L 1028.0,39.63 L 1032.0,41.38 L 1036.0,42.80 L 1040.0,43.87 L 1044.0,44.59 L 1048.0,44.95 L 1052.0,44.95 L 1056.0,44.59 L 1060.0,43.87 L 1064.0,42.80 L 1068.0,41.38 L 1072.0,39.63 L 1076.0,37.56 L 1080.0,35.18 L 1084.0,32.53 L 1088.0,29.61 L 1092.0,26.45 L 1096.0,23.08 L 1100.0,19.52 L 1104.0,15.81 L 1108.0,11.97 L 1112.0,8.04 L 1116.0,4.03 L 1120.0,0.00 L 1124.0,-4.03 L 1128.0,-8.04 L 1132.0,-11.97 L 1136.0,-15.81 L 1140.0,-19.52 L 1144.0,-23.08 L 1148.0,-26.45 L 1152.0,-29.61 L 1156.0,-32.53 L 1160.0,-35.18 L 1164.0,-37.56 L 1168.0,-39.63 L 1172.0,-41.38 L 1176.0,-42.80 L 1180.0,-43.87 L 1184.0,-44.59 L 1188.0,-44.95 L 1192.0,-44.95 L 1196.0,-44.59 L 1200.0,-43.87 L 1204.0,-42.80 L 1208.0,-41.38 L 1212.0,-39.63 L 1216.0,-37.56 L 1220.0,-35.18 L 1224.0,-32.53 L 1228.0,-29.61 L 1232.0,-26.45 L 1236.0,-23.08 L 1240.0,-19.52" fill="none" stroke="#2c6fbb" stroke-width="3" />
    </g>

    <!-- reflected wave: travels left, inverted -->
    <g>
      <animateTransform attributeName="transform" type="translate"
        values="0 0;-280 0" dur="4s" repeatCount="indefinite" calcMode="linear" />
      <path d="M -400.0,-19.52 L -396.0,-23.08 L -392.0,-26.45 L -388.0,-29.61 L -384.0,-32.53 L -380.0,-35.18 L -376.0,-37.56 L -372.0,-39.63 L -368.0,-41.38 L -364.0,-42.80 L -360.0,-43.87 L -356.0,-44.59 L -352.0,-44.95 L -348.0,-44.95 L -344.0,-44.59 L -340.0,-43.87 L -336.0,-42.80 L -332.0,-41.38 L -328.0,-39.63 L -324.0,-37.56 L -320.0,-35.18 L -316.0,-32.53 L -312.0,-29.61 L -308.0,-26.45 L -304.0,-23.08 L -300.0,-19.52 L -296.0,-15.81 L -292.0,-11.97 L -288.0,-8.04 L -284.0,-4.03 L -280.0,0.00 L -276.0,4.03 L -272.0,8.04 L -268.0,11.97 L -264.0,15.81 L -260.0,19.52 L -256.0,23.08 L -252.0,26.45 L -248.0,29.61 L -244.0,32.53 L -240.0,35.18 L -236.0,37.56 L -232.0,39.63 L -228.0,41.38 L -224.0,42.80 L -220.0,43.87 L -216.0,44.59 L -212.0,44.95 L -208.0,44.95 L -204.0,44.59 L -200.0,43.87 L -196.0,42.80 L -192.0,41.38 L -188.0,39.63 L -184.0,37.56 L -180.0,35.18 L -176.0,32.53 L -172.0,29.61 L -168.0,26.45 L -164.0,23.08 L -160.0,19.52 L -156.0,15.81 L -152.0,11.97 L -148.0,8.04 L -144.0,4.03 L -140.0,-0.00 L -136.0,-4.03 L -132.0,-8.04 L -128.0,-11.97 L -124.0,-15.81 L -120.0,-19.52 L -116.0,-23.08 L -112.0,-26.45 L -108.0,-29.61 L -104.0,-32.53 L -100.0,-35.18 L -96.0,-37.56 L -92.0,-39.63 L -88.0,-41.38 L -84.0,-42.80 L -80.0,-43.87 L -76.0,-44.59 L -72.0,-44.95 L -68.0,-44.95 L -64.0,-44.59 L -60.0,-43.87 L -56.0,-42.80 L -52.0,-41.38 L -48.0,-39.63 L -44.0,-37.56 L -40.0,-35.18 L -36.0,-32.53 L -32.0,-29.61 L -28.0,-26.45 L -24.0,-23.08 L -20.0,-19.52 L -16.0,-15.81 L -12.0,-11.97 L -8.0,-8.04 L -4.0,-4.03 L 0.0,0.00 L 4.0,4.03 L 8.0,8.04 L 12.0,11.97 L 16.0,15.81 L 20.0,19.52 L 24.0,23.08 L 28.0,26.45 L 32.0,29.61 L 36.0,32.53 L 40.0,35.18 L 44.0,37.56 L 48.0,39.63 L 52.0,41.38 L 56.0,42.80 L 60.0,43.87 L 64.0,44.59 L 68.0,44.95 L 72.0,44.95 L 76.0,44.59 L 80.0,43.87 L 84.0,42.80 L 88.0,41.38 L 92.0,39.63 L 96.0,37.56 L 100.0,35.18 L 104.0,32.53 L 108.0,29.61 L 112.0,26.45 L 116.0,23.08 L 120.0,19.52 L 124.0,15.81 L 128.0,11.97 L 132.0,8.04 L 136.0,4.03 L 140.0,0.00 L 144.0,-4.03 L 148.0,-8.04 L 152.0,-11.97 L 156.0,-15.81 L 160.0,-19.52 L 164.0,-23.08 L 168.0,-26.45 L 172.0,-29.61 L 176.0,-32.53 L 180.0,-35.18 L 184.0,-37.56 L 188.0,-39.63 L 192.0,-41.38 L 196.0,-42.80 L 200.0,-43.87 L 204.0,-44.59 L 208.0,-44.95 L 212.0,-44.95 L 216.0,-44.59 L 220.0,-43.87 L 224.0,-42.80 L 228.0,-41.38 L 232.0,-39.63 L 236.0,-37.56 L 240.0,-35.18 L 244.0,-32.53 L 248.0,-29.61 L 252.0,-26.45 L 256.0,-23.08 L 260.0,-19.52 L 264.0,-15.81 L 268.0,-11.97 L 272.0,-8.04 L 276.0,-4.03 L 280.0,-0.00 L 284.0,4.03 L 288.0,8.04 L 292.0,11.97 L 296.0,15.81 L 300.0,19.52 L 304.0,23.08 L 308.0,26.45 L 312.0,29.61 L 316.0,32.53 L 320.0,35.18 L 324.0,37.56 L 328.0,39.63 L 332.0,41.38 L 336.0,42.80 L 340.0,43.87 L 344.0,44.59 L 348.0,44.95 L 352.0,44.95 L 356.0,44.59 L 360.0,43.87 L 364.0,42.80 L 368.0,41.38 L 372.0,39.63 L 376.0,37.56 L 380.0,35.18 L 384.0,32.53 L 388.0,29.61 L 392.0,26.45 L 396.0,23.08 L 400.0,19.52 L 404.0,15.81 L 408.0,11.97 L 412.0,8.04 L 416.0,4.03 L 420.0,0.00 L 424.0,-4.03 L 428.0,-8.04 L 432.0,-11.97 L 436.0,-15.81 L 440.0,-19.52 L 444.0,-23.08 L 448.0,-26.45 L 452.0,-29.61 L 456.0,-32.53 L 460.0,-35.18 L 464.0,-37.56 L 468.0,-39.63 L 472.0,-41.38 L 476.0,-42.80 L 480.0,-43.87 L 484.0,-44.59 L 488.0,-44.95 L 492.0,-44.95 L 496.0,-44.59 L 500.0,-43.87 L 504.0,-42.80 L 508.0,-41.38 L 512.0,-39.63 L 516.0,-37.56 L 520.0,-35.18 L 524.0,-32.53 L 528.0,-29.61 L 532.0,-26.45 L 536.0,-23.08 L 540.0,-19.52 L 544.0,-15.81 L 548.0,-11.97 L 552.0,-8.04 L 556.0,-4.03 L 560.0,-0.00 L 564.0,4.03 L 568.0,8.04 L 572.0,11.97 L 576.0,15.81 L 580.0,19.52 L 584.0,23.08 L 588.0,26.45 L 592.0,29.61 L 596.0,32.53 L 600.0,35.18 L 604.0,37.56 L 608.0,39.63 L 612.0,41.38 L 616.0,42.80 L 620.0,43.87 L 624.0,44.59 L 628.0,44.95 L 632.0,44.95 L 636.0,44.59 L 640.0,43.87 L 644.0,42.80 L 648.0,41.38 L 652.0,39.63 L 656.0,37.56 L 660.0,35.18 L 664.0,32.53 L 668.0,29.61 L 672.0,26.45 L 676.0,23.08 L 680.0,19.52 L 684.0,15.81 L 688.0,11.97 L 692.0,8.04 L 696.0,4.03 L 700.0,0.00 L 704.0,-4.03 L 708.0,-8.04 L 712.0,-11.97 L 716.0,-15.81 L 720.0,-19.52 L 724.0,-23.08 L 728.0,-26.45 L 732.0,-29.61 L 736.0,-32.53 L 740.0,-35.18 L 744.0,-37.56 L 748.0,-39.63 L 752.0,-41.38 L 756.0,-42.80 L 760.0,-43.87 L 764.0,-44.59 L 768.0,-44.95 L 772.0,-44.95 L 776.0,-44.59 L 780.0,-43.87 L 784.0,-42.80 L 788.0,-41.38 L 792.0,-39.63 L 796.0,-37.56 L 800.0,-35.18 L 804.0,-32.53 L 808.0,-29.61 L 812.0,-26.45 L 816.0,-23.08 L 820.0,-19.52 L 824.0,-15.81 L 828.0,-11.97 L 832.0,-8.04 L 836.0,-4.03 L 840.0,-0.00 L 844.0,4.03 L 848.0,8.04 L 852.0,11.97 L 856.0,15.81 L 860.0,19.52 L 864.0,23.08 L 868.0,26.45 L 872.0,29.61 L 876.0,32.53 L 880.0,35.18 L 884.0,37.56 L 888.0,39.63 L 892.0,41.38 L 896.0,42.80 L 900.0,43.87 L 904.0,44.59 L 908.0,44.95 L 912.0,44.95 L 916.0,44.59 L 920.0,43.87 L 924.0,42.80 L 928.0,41.38 L 932.0,39.63 L 936.0,37.56 L 940.0,35.18 L 944.0,32.53 L 948.0,29.61 L 952.0,26.45 L 956.0,23.08 L 960.0,19.52 L 964.0,15.81 L 968.0,11.97 L 972.0,8.04 L 976.0,4.03 L 980.0,0.00 L 984.0,-4.03 L 988.0,-8.04 L 992.0,-11.97 L 996.0,-15.81 L 1000.0,-19.52 L 1004.0,-23.08 L 1008.0,-26.45 L 1012.0,-29.61 L 1016.0,-32.53 L 1020.0,-35.18 L 1024.0,-37.56 L 1028.0,-39.63 L 1032.0,-41.38 L 1036.0,-42.80 L 1040.0,-43.87 L 1044.0,-44.59 L 1048.0,-44.95 L 1052.0,-44.95 L 1056.0,-44.59 L 1060.0,-43.87 L 1064.0,-42.80 L 1068.0,-41.38 L 1072.0,-39.63 L 1076.0,-37.56 L 1080.0,-35.18 L 1084.0,-32.53 L 1088.0,-29.61 L 1092.0,-26.45 L 1096.0,-23.08 L 1100.0,-19.52 L 1104.0,-15.81 L 1108.0,-11.97 L 1112.0,-8.04 L 1116.0,-4.03 L 1120.0,-0.00 L 1124.0,4.03 L 1128.0,8.04 L 1132.0,11.97 L 1136.0,15.81 L 1140.0,19.52 L 1144.0,23.08 L 1148.0,26.45 L 1152.0,29.61 L 1156.0,32.53 L 1160.0,35.18 L 1164.0,37.56 L 1168.0,39.63 L 1172.0,41.38 L 1176.0,42.80 L 1180.0,43.87 L 1184.0,44.59 L 1188.0,44.95 L 1192.0,44.95 L 1196.0,44.59 L 1200.0,43.87 L 1204.0,42.80 L 1208.0,41.38 L 1212.0,39.63 L 1216.0,37.56 L 1220.0,35.18 L 1224.0,32.53 L 1228.0,29.61 L 1232.0,26.45 L 1236.0,23.08 L 1240.0,19.52" fill="none" stroke="#c0392b" stroke-width="3" stroke-dasharray="7 5" />
    </g>

    <!-- sum: fixed shape, amplitude pulses between +2A and -2A -->
    <g>
      <animateTransform attributeName="transform" type="scale"
        values="1 0;1 0.707;1 1;1 0.707;1 0;1 -0.707;1 -1;1 -0.707;1 0"
        keyTimes="0;0.125;0.25;0.375;0.5;0.625;0.75;0.875;1"
        dur="4s" repeatCount="indefinite" calcMode="linear" />
      <path d="M -400.0,-81.09 L -396.0,-77.26 L -392.0,-72.81 L -388.0,-67.78 L -384.0,-62.20 L -380.0,-56.11 L -376.0,-49.58 L -372.0,-42.65 L -368.0,-35.37 L -364.0,-27.81 L -360.0,-20.03 L -356.0,-12.08 L -352.0,-4.04 L -348.0,4.04 L -344.0,12.08 L -340.0,20.03 L -336.0,27.81 L -332.0,35.37 L -328.0,42.65 L -324.0,49.58 L -320.0,56.11 L -316.0,62.20 L -312.0,67.78 L -308.0,72.81 L -304.0,77.26 L -300.0,81.09 L -296.0,84.26 L -292.0,86.76 L -288.0,88.55 L -284.0,89.64 L -280.0,90.00 L -276.0,89.64 L -272.0,88.55 L -268.0,86.76 L -264.0,84.26 L -260.0,81.09 L -256.0,77.26 L -252.0,72.81 L -248.0,67.78 L -244.0,62.20 L -240.0,56.11 L -236.0,49.58 L -232.0,42.65 L -228.0,35.37 L -224.0,27.81 L -220.0,20.03 L -216.0,12.08 L -212.0,4.04 L -208.0,-4.04 L -204.0,-12.08 L -200.0,-20.03 L -196.0,-27.81 L -192.0,-35.37 L -188.0,-42.65 L -184.0,-49.58 L -180.0,-56.11 L -176.0,-62.20 L -172.0,-67.78 L -168.0,-72.81 L -164.0,-77.26 L -160.0,-81.09 L -156.0,-84.26 L -152.0,-86.76 L -148.0,-88.55 L -144.0,-89.64 L -140.0,-90.00 L -136.0,-89.64 L -132.0,-88.55 L -128.0,-86.76 L -124.0,-84.26 L -120.0,-81.09 L -116.0,-77.26 L -112.0,-72.81 L -108.0,-67.78 L -104.0,-62.20 L -100.0,-56.11 L -96.0,-49.58 L -92.0,-42.65 L -88.0,-35.37 L -84.0,-27.81 L -80.0,-20.03 L -76.0,-12.08 L -72.0,-4.04 L -68.0,4.04 L -64.0,12.08 L -60.0,20.03 L -56.0,27.81 L -52.0,35.37 L -48.0,42.65 L -44.0,49.58 L -40.0,56.11 L -36.0,62.20 L -32.0,67.78 L -28.0,72.81 L -24.0,77.26 L -20.0,81.09 L -16.0,84.26 L -12.0,86.76 L -8.0,88.55 L -4.0,89.64 L 0.0,90.00 L 4.0,89.64 L 8.0,88.55 L 12.0,86.76 L 16.0,84.26 L 20.0,81.09 L 24.0,77.26 L 28.0,72.81 L 32.0,67.78 L 36.0,62.20 L 40.0,56.11 L 44.0,49.58 L 48.0,42.65 L 52.0,35.37 L 56.0,27.81 L 60.0,20.03 L 64.0,12.08 L 68.0,4.04 L 72.0,-4.04 L 76.0,-12.08 L 80.0,-20.03 L 84.0,-27.81 L 88.0,-35.37 L 92.0,-42.65 L 96.0,-49.58 L 100.0,-56.11 L 104.0,-62.20 L 108.0,-67.78 L 112.0,-72.81 L 116.0,-77.26 L 120.0,-81.09 L 124.0,-84.26 L 128.0,-86.76 L 132.0,-88.55 L 136.0,-89.64 L 140.0,-90.00 L 144.0,-89.64 L 148.0,-88.55 L 152.0,-86.76 L 156.0,-84.26 L 160.0,-81.09 L 164.0,-77.26 L 168.0,-72.81 L 172.0,-67.78 L 176.0,-62.20 L 180.0,-56.11 L 184.0,-49.58 L 188.0,-42.65 L 192.0,-35.37 L 196.0,-27.81 L 200.0,-20.03 L 204.0,-12.08 L 208.0,-4.04 L 212.0,4.04 L 216.0,12.08 L 220.0,20.03 L 224.0,27.81 L 228.0,35.37 L 232.0,42.65 L 236.0,49.58 L 240.0,56.11 L 244.0,62.20 L 248.0,67.78 L 252.0,72.81 L 256.0,77.26 L 260.0,81.09 L 264.0,84.26 L 268.0,86.76 L 272.0,88.55 L 276.0,89.64 L 280.0,90.00 L 284.0,89.64 L 288.0,88.55 L 292.0,86.76 L 296.0,84.26 L 300.0,81.09 L 304.0,77.26 L 308.0,72.81 L 312.0,67.78 L 316.0,62.20 L 320.0,56.11 L 324.0,49.58 L 328.0,42.65 L 332.0,35.37 L 336.0,27.81 L 340.0,20.03 L 344.0,12.08 L 348.0,4.04 L 352.0,-4.04 L 356.0,-12.08 L 360.0,-20.03 L 364.0,-27.81 L 368.0,-35.37 L 372.0,-42.65 L 376.0,-49.58 L 380.0,-56.11 L 384.0,-62.20 L 388.0,-67.78 L 392.0,-72.81 L 396.0,-77.26 L 400.0,-81.09 L 404.0,-84.26 L 408.0,-86.76 L 412.0,-88.55 L 416.0,-89.64 L 420.0,-90.00 L 424.0,-89.64 L 428.0,-88.55 L 432.0,-86.76 L 436.0,-84.26 L 440.0,-81.09 L 444.0,-77.26 L 448.0,-72.81 L 452.0,-67.78 L 456.0,-62.20 L 460.0,-56.11 L 464.0,-49.58 L 468.0,-42.65 L 472.0,-35.37 L 476.0,-27.81 L 480.0,-20.03 L 484.0,-12.08 L 488.0,-4.04 L 492.0,4.04 L 496.0,12.08 L 500.0,20.03 L 504.0,27.81 L 508.0,35.37 L 512.0,42.65 L 516.0,49.58 L 520.0,56.11 L 524.0,62.20 L 528.0,67.78 L 532.0,72.81 L 536.0,77.26 L 540.0,81.09 L 544.0,84.26 L 548.0,86.76 L 552.0,88.55 L 556.0,89.64 L 560.0,90.00 L 564.0,89.64 L 568.0,88.55 L 572.0,86.76 L 576.0,84.26 L 580.0,81.09 L 584.0,77.26 L 588.0,72.81 L 592.0,67.78 L 596.0,62.20 L 600.0,56.11 L 604.0,49.58 L 608.0,42.65 L 612.0,35.37 L 616.0,27.81 L 620.0,20.03 L 624.0,12.08 L 628.0,4.04 L 632.0,-4.04 L 636.0,-12.08 L 640.0,-20.03 L 644.0,-27.81 L 648.0,-35.37 L 652.0,-42.65 L 656.0,-49.58 L 660.0,-56.11 L 664.0,-62.20 L 668.0,-67.78 L 672.0,-72.81 L 676.0,-77.26 L 680.0,-81.09 L 684.0,-84.26 L 688.0,-86.76 L 692.0,-88.55 L 696.0,-89.64 L 700.0,-90.00 L 704.0,-89.64 L 708.0,-88.55 L 712.0,-86.76 L 716.0,-84.26 L 720.0,-81.09 L 724.0,-77.26 L 728.0,-72.81 L 732.0,-67.78 L 736.0,-62.20 L 740.0,-56.11 L 744.0,-49.58 L 748.0,-42.65 L 752.0,-35.37 L 756.0,-27.81 L 760.0,-20.03 L 764.0,-12.08 L 768.0,-4.04 L 772.0,4.04 L 776.0,12.08 L 780.0,20.03 L 784.0,27.81 L 788.0,35.37 L 792.0,42.65 L 796.0,49.58 L 800.0,56.11 L 804.0,62.20 L 808.0,67.78 L 812.0,72.81 L 816.0,77.26 L 820.0,81.09 L 824.0,84.26 L 828.0,86.76 L 832.0,88.55 L 836.0,89.64 L 840.0,90.00 L 844.0,89.64 L 848.0,88.55 L 852.0,86.76 L 856.0,84.26 L 860.0,81.09 L 864.0,77.26 L 868.0,72.81 L 872.0,67.78 L 876.0,62.20 L 880.0,56.11 L 884.0,49.58 L 888.0,42.65 L 892.0,35.37 L 896.0,27.81 L 900.0,20.03 L 904.0,12.08 L 908.0,4.04 L 912.0,-4.04 L 916.0,-12.08 L 920.0,-20.03 L 924.0,-27.81 L 928.0,-35.37 L 932.0,-42.65 L 936.0,-49.58 L 940.0,-56.11 L 944.0,-62.20 L 948.0,-67.78 L 952.0,-72.81 L 956.0,-77.26 L 960.0,-81.09 L 964.0,-84.26 L 968.0,-86.76 L 972.0,-88.55 L 976.0,-89.64 L 980.0,-90.00 L 984.0,-89.64 L 988.0,-88.55 L 992.0,-86.76 L 996.0,-84.26 L 1000.0,-81.09 L 1004.0,-77.26 L 1008.0,-72.81 L 1012.0,-67.78 L 1016.0,-62.20 L 1020.0,-56.11 L 1024.0,-49.58 L 1028.0,-42.65 L 1032.0,-35.37 L 1036.0,-27.81 L 1040.0,-20.03 L 1044.0,-12.08 L 1048.0,-4.04 L 1052.0,4.04 L 1056.0,12.08 L 1060.0,20.03 L 1064.0,27.81 L 1068.0,35.37 L 1072.0,42.65 L 1076.0,49.58 L 1080.0,56.11 L 1084.0,62.20 L 1088.0,67.78 L 1092.0,72.81 L 1096.0,77.26 L 1100.0,81.09 L 1104.0,84.26 L 1108.0,86.76 L 1112.0,88.55 L 1116.0,89.64 L 1120.0,90.00 L 1124.0,89.64 L 1128.0,88.55 L 1132.0,86.76 L 1136.0,84.26 L 1140.0,81.09 L 1144.0,77.26 L 1148.0,72.81 L 1152.0,67.78 L 1156.0,62.20 L 1160.0,56.11 L 1164.0,49.58 L 1168.0,42.65 L 1172.0,35.37 L 1176.0,27.81 L 1180.0,20.03 L 1184.0,12.08 L 1188.0,4.04 L 1192.0,-4.04 L 1196.0,-12.08 L 1200.0,-20.03 L 1204.0,-27.81 L 1208.0,-35.37 L 1212.0,-42.65 L 1216.0,-49.58 L 1220.0,-56.11 L 1224.0,-62.20 L 1228.0,-67.78 L 1232.0,-72.81 L 1236.0,-77.26 L 1240.0,-81.09" fill="none" stroke="#4b1e62" stroke-width="5" stroke-linejoin="round" />
    </g>

    <!-- fixed nodes: the sum wave is zero here at every instant -->
    <circle cx="70.0" cy="0" r="4" fill="#43220d" />
      <circle cx="210.0" cy="0" r="4" fill="#43220d" />
      <circle cx="350.0" cy="0" r="4" fill="#43220d" />
      <circle cx="490.0" cy="0" r="4" fill="#43220d" />
      <circle cx="630.0" cy="0" r="4" fill="#43220d" />
      <circle cx="770.0" cy="0" r="4" fill="#43220d" />

    <!-- one annotated antinode -->
    <line x1="280.0" y1="-102.0" x2="280.0" y2="102.0"
          stroke="#8a6239" stroke-width="1.5" stroke-dasharray="4 4" />
  </g>

  <g font-family="Georgia, serif" font-size="14" fill="#43220d">
    <text x="280.0" y="100.0" font-style="italic">antinode</text>
    <text x="222.0" y="234.0" font-style="italic">node</text>
  </g>

  <text x="450.0" y="410" text-anchor="middle" font-family="Georgia, serif" font-size="15" fill="#43220d">
    Two equal-amplitude waves travelling in opposite directions add up to a standing wave
  </text>
  <text x="450.0" y="432" text-anchor="middle" font-family="Georgia, serif" font-size="15" fill="#43220d">
    whose antinodes swing between <tspan font-weight="bold">+2A and &#8211;2A</tspan> &#8212; double the amplitude of either wave alone.
  </text>
</svg>
